<svg version="1.1" id="Layer_1" xmlns="http://www.w3.org/2000/svg" xmlns:xlink="http://www.w3.org/1999/xlink" x="0px" y="0px"
	 width="100%" viewBox="0 0 443 442" enable-background="new 0 0 443 442" xml:space="preserve">
<path fill="#F0EDE6" opacity="1.000000" stroke="none" 
	d="
M210.254303,442.765442 
	C141.683792,443.000000 73.367531,442.970917 5.051533,443.088562 
	C1.741588,443.094269 0.896005,442.583069 0.898890,439.053284 
	C1.017125,294.422974 1.021216,149.792557 0.884861,5.162271 
	C0.881233,1.314006 1.972136,0.921387 5.335754,0.923452 
	C150.132736,1.012358 294.929779,1.015553 439.726746,0.908339 
	C443.266144,0.905718 444.105164,1.552502 444.102112,5.224760 
	C443.981995,149.688446 443.978760,294.152283 444.110443,438.615936 
	C444.114105,442.621246 442.922760,443.087677 439.386108,443.081909 
	C371.569977,442.971161 303.753632,443.000000 235.468658,443.000000 
	C232.839859,441.504395 230.555481,441.693787 228.112793,442.750244 
	C225.629440,443.000000 223.258896,443.000000 220.444168,443.000000 
	C219.935928,442.850983 219.826370,442.703583 219.821121,442.552521 
	C219.816269,442.412994 219.923233,442.269562 219.980957,442.127869 
	C216.813538,442.027771 213.631073,441.574249 210.254303,442.765442 
z"/>
<path fill="#CBC8C2" opacity="1.000000" stroke="none" 
	d="
M210.454102,443.000000 
	C213.189072,439.085541 217.306900,441.518585 221.048935,441.383331 
	C220.805481,441.743500 220.562027,442.103699 220.159286,442.731934 
	C216.969406,443.000000 213.938812,443.000000 210.454102,443.000000 
z"/>
<path fill="#CBC8C2" opacity="1.000000" stroke="none" 
	d="
M228.437500,443.000000 
	C228.241196,442.256744 225.704895,441.425903 227.587860,441.196869 
	C229.900391,440.915588 232.721054,439.838440 234.893433,442.625946 
	C232.958328,443.000000 230.916672,443.000000 228.437500,443.000000 
z"/>
<path fill="#CBC8C2" opacity="1.000000" stroke="none" 
	d="
M229.001648,277.008118 
	C229.001648,272.063477 229.001648,267.616974 229.001648,263.170441 
	C229.238770,263.173126 229.475891,263.175781 229.713013,263.178436 
	C229.713013,276.312469 229.713013,289.446503 229.713013,302.580536 
	C229.475891,302.588043 229.238770,302.595551 229.001648,302.603058 
	C229.001648,294.237427 229.001648,285.871826 229.001648,277.008118 
z"/>
<path fill="#CBC8C2" opacity="1.000000" stroke="none" 
	d="
M229.001862,236.514252 
	C229.050018,235.117920 229.098053,234.150681 229.146103,233.183456 
	C229.421951,233.183899 229.697800,233.184357 229.973648,233.184799 
	C229.973648,241.218460 229.963135,249.252151 229.980377,257.285797 
	C229.985245,259.552521 228.619034,260.019348 226.718475,259.998596 
	C223.252975,259.960693 219.786774,259.987793 216.290054,259.001282 
	C217.904739,259.001282 219.519562,259.016113 221.134064,258.998840 
	C230.045883,258.903564 228.914536,260.044891 228.994507,250.911133 
	C229.035263,246.255539 229.001709,241.599289 229.001862,236.514252 
z"/>
<path fill="#D8D5CF" opacity="1.000000" stroke="none" 
	d="
M232.752625,203.198074 
	C234.872528,205.668335 236.712158,208.231506 238.724060,211.034653 
	C233.839813,209.974335 231.249466,206.583603 232.752625,203.198074 
z"/>
<path fill="#D8D5CF" opacity="1.000000" stroke="none" 
	d="
M207.342285,178.793686 
	C209.156006,180.184570 210.732010,181.340149 212.308029,182.495712 
	C211.865860,182.943878 211.423691,183.392059 210.981506,183.840225 
	C207.196640,183.229355 205.652603,179.920044 203.232468,177.374878 
	C205.552673,175.721756 205.996902,177.976028 207.342285,178.793686 
z"/>
<path fill="#D8D5CF" opacity="1.000000" stroke="none" 
	d="
M221.809555,363.029175 
	C224.053635,363.025177 225.836060,363.025177 227.618469,363.025177 
	C227.618118,363.236847 227.617783,363.448547 227.617432,363.660217 
	C221.821503,363.660217 216.025589,363.660217 210.229660,363.660217 
	C210.223740,363.451202 210.217834,363.242157 210.211929,363.033142 
	C213.923904,363.033142 217.635895,363.033142 221.809555,363.029175 
z"/>
<path fill="#CBC8C2" opacity="1.000000" stroke="none" 
	d="
M230.747116,347.420654 
	C231.357651,353.033234 230.283859,358.408203 230.950729,363.716827 
	C230.000000,358.237549 229.524475,352.726288 230.747116,347.420654 
z"/>
<path fill="#D8D5CF" opacity="1.000000" stroke="none" 
	d="
M300.497253,271.855896 
	C297.842560,270.887115 296.374695,269.107208 294.437073,265.866547 
	C298.318451,267.383270 300.441650,268.700012 300.497253,271.855896 
z"/>
<path fill="#CBC8C2" opacity="1.000000" stroke="none" 
	d="
M216.669220,201.998322 
	C213.271622,201.998337 210.313614,201.998337 207.355621,201.998337 
	C207.352982,201.782425 207.350357,201.566498 207.347717,201.350586 
	C211.857910,201.350586 216.368088,201.350586 221.095963,201.350586 
	C219.726852,202.401428 218.367569,201.832596 216.669220,201.998322 
z"/>
<path fill="#CBC8C2" opacity="1.000000" stroke="none" 
	d="
M231.462891,157.220093 
	C231.124054,160.656433 230.951599,163.745819 230.779144,166.835220 
	C230.527878,166.833084 230.276596,166.830948 230.025330,166.828812 
	C230.025330,163.260529 230.017120,159.692200 230.032669,156.123978 
	C230.035568,155.457230 230.227112,154.664047 231.072815,155.156845 
	C231.460159,155.382538 231.455948,156.280228 231.462891,157.220093 
z"/>
<path fill="#CBC8C2" opacity="1.000000" stroke="none" 
	d="
M229.002289,218.637512 
	C229.050873,217.587891 229.098984,216.944733 229.147095,216.301559 
	C229.317856,216.303558 229.488632,216.305542 229.659393,216.307526 
	C229.659393,220.494675 229.659393,224.681839 229.659393,228.868988 
	C229.440201,228.876938 229.221024,228.884872 229.001831,228.892822 
	C229.001831,225.609863 229.001831,222.326904 229.002289,218.637512 
z"/>
<path fill="#CBC8C2" opacity="1.000000" stroke="none" 
	d="
M219.720428,314.330383 
	C215.804535,315.481110 211.590042,314.809265 207.346985,314.096893 
	C211.377502,314.096893 215.408020,314.096893 219.720428,314.330383 
z"/>
<path fill="#D8D5CF" opacity="1.000000" stroke="none" 
	d="
M266.630615,239.079239 
	C264.325195,238.076065 262.343414,236.745117 262.057495,233.238739 
	C264.562897,234.916733 266.565521,236.096878 266.630615,239.079239 
z"/>
<path fill="#CBC8C2" opacity="1.000000" stroke="none" 
	d="
M195.312042,146.998322 
	C193.618591,146.919968 192.356369,146.841629 191.094162,146.763290 
	C191.102203,146.590927 191.110245,146.418549 191.118271,146.246170 
	C195.322266,146.246170 199.526260,146.246170 203.730240,146.246170 
	C203.738403,146.496902 203.746552,146.747620 203.754715,146.998352 
	C201.084244,146.998352 198.413757,146.998352 195.312042,146.998322 
z"/>
<path fill="#CBC8C2" opacity="1.000000" stroke="none" 
	d="
M208.613831,95.002335 
	C211.974045,95.001778 214.924149,95.001778 217.874252,95.001778 
	C217.870316,95.243889 217.866364,95.485992 217.862427,95.728104 
	C214.004501,95.728104 210.146591,95.728104 206.278748,95.728104 
	C206.288361,95.536484 206.254700,95.400322 206.306091,95.348450 
	C206.418884,95.234650 206.568085,95.102043 206.714249,95.086227 
	C207.207947,95.032776 207.706818,95.026939 208.613831,95.002335 
z"/>
<path fill="#CBC8C2" opacity="1.000000" stroke="none" 
	d="
M63.528217,73.751457 
	C63.973419,72.421967 64.270004,70.214317 65.650414,71.033615 
	C67.885078,72.359924 66.273056,74.464951 65.628624,76.457397 
	C64.880409,75.541496 64.266533,74.790039 63.528217,73.751457 
z"/>
<path fill="#CBC8C2" opacity="1.000000" stroke="none" 
	d="
M192.580200,364.330261 
	C189.264847,365.408417 185.697159,364.961456 182.117554,364.094513 
	C185.519699,364.094513 188.921860,364.094513 192.580200,364.330261 
z"/>
<path fill="#D8D5CF" opacity="1.000000" stroke="none" 
	d="
M186.640991,157.408737 
	C187.829712,158.606873 189.517029,159.114426 189.312729,161.286835 
	C186.874237,161.474716 185.787964,159.543793 184.903290,158.088486 
	C184.197510,156.927475 185.646790,157.218918 186.640991,157.408737 
z"/>
<path fill="#CBC8C2" opacity="1.000000" stroke="none" 
	d="
M179.999573,260.998688 
	C178.128784,260.998688 176.673599,260.998688 175.218430,260.998688 
	C175.216904,260.766968 175.215378,260.535278 175.213837,260.303558 
	C178.345016,260.303558 181.476181,260.303558 184.607361,260.303558 
	C184.633942,260.535278 184.660522,260.766968 184.687103,260.998688 
	C183.263138,260.998688 181.839172,260.998688 179.999573,260.998688 
z"/>
<path fill="#D8D5CF" opacity="1.000000" stroke="none" 
	d="
M330.080872,304.313721 
	C328.864624,302.851166 327.967834,301.529907 328.202850,299.513062 
	C330.872467,300.373840 330.918671,302.482330 331.226227,304.419128 
	C331.230957,304.448944 330.951355,304.558838 330.800293,304.568878 
	C330.643219,304.579254 330.481079,304.513702 330.080872,304.313721 
z"/>
<path fill="#CBC8C2" opacity="1.000000" stroke="none" 
	d="
M245.534531,430.997559 
	C243.203079,430.998291 241.271088,430.998291 239.339096,430.998291 
	C239.333328,430.778900 239.327576,430.559540 239.321808,430.340149 
	C242.166489,430.340149 245.011169,430.340149 247.875595,430.340149 
	C247.848877,430.478210 247.862473,430.606110 247.805939,430.658783 
	C247.690399,430.766479 247.543533,430.891022 247.398300,430.907196 
	C246.912872,430.961243 246.422485,430.970459 245.534531,430.997559 
z"/>
<path fill="#D8D5CF" opacity="1.000000" stroke="none" 
	d="
M229.064240,190.108902 
	C230.154388,191.862808 230.154388,191.862808 229.041672,197.638962 
	C229.041672,195.244049 229.041672,192.849136 229.064240,190.108902 
z"/>
<path fill="#CBC8C2" opacity="1.000000" stroke="none" 
	d="
M185.237137,144.998169 
	C183.913513,144.921219 182.979691,144.844360 180.935577,144.676102 
	C184.579544,143.673035 187.121506,144.023117 189.747162,144.998245 
	C188.373764,144.998245 187.000351,144.998245 185.237137,144.998169 
z"/>
<path fill="#CBC8C2" opacity="1.000000" stroke="none" 
	d="
M221.692276,316.992249 
	C221.008163,316.918640 220.690125,316.870941 220.386826,316.776123 
	C219.932877,316.634186 219.948303,316.242584 220.434753,316.228882 
	C222.841049,316.160889 225.250290,316.197876 227.730286,316.997101 
	C225.841843,316.997101 223.953384,316.997101 221.692276,316.992249 
z"/>
<path fill="#CBC8C2" opacity="1.000000" stroke="none" 
	d="
M229.998169,112.756592 
	C229.919952,114.080795 229.841827,115.014221 229.668762,117.081924 
	C228.681671,113.400146 229.014511,110.848167 229.998245,108.216110 
	C229.998245,109.599342 229.998245,110.982582 229.998169,112.756592 
z"/>
<path fill="#CBC8C2" opacity="1.000000" stroke="none" 
	d="
M227.991119,100.714386 
	C227.996597,102.995850 227.996597,104.902672 227.996597,106.809502 
	C227.683167,106.815056 227.369720,106.820618 227.056290,106.826172 
	C227.056290,104.533844 227.053986,102.241516 227.061569,99.949211 
	C227.062073,99.797722 227.092178,99.556664 227.185913,99.508789 
	C228.326874,98.926064 227.696472,100.077568 227.991119,100.714386 
z"/>
<path fill="#D8D5CF" opacity="1.000000" stroke="none" 
	d="
M328.049377,380.055481 
	C329.127502,381.729370 329.127502,381.729370 328.021667,386.675354 
	C328.021667,384.583130 328.021667,382.490936 328.049377,380.055481 
z"/>
<path fill="#CBC8C2" opacity="1.000000" stroke="none" 
	d="
M240.332596,201.990479 
	C238.360168,201.996368 236.754547,201.996368 235.148941,201.996368 
	C235.140594,201.680923 235.132263,201.365494 235.123917,201.050049 
	C237.086517,201.050049 239.049103,201.047867 241.011688,201.054214 
	C241.168869,201.054718 241.415512,201.061829 241.469269,201.154053 
	C242.097824,202.232574 241.013855,201.754852 240.332596,201.990479 
z"/>
<path fill="#CBC8C2" opacity="1.000000" stroke="none" 
	d="
M265.305664,362.990662 
	C263.368866,362.996429 261.793121,362.996429 260.217407,362.996429 
	C260.208862,362.680695 260.200317,362.364990 260.191742,362.049255 
	C262.119446,362.049255 264.047119,362.047089 265.974823,362.053375 
	C266.128967,362.053864 266.370300,362.061462 266.423615,362.152313 
	C267.038452,363.199799 265.999390,362.774353 265.305664,362.990662 
z"/>
<path fill="#CBC8C2" opacity="1.000000" stroke="none" 
	d="
M267.117554,315.948669 
	C264.900391,315.790253 262.954437,316.476776 260.278229,315.092010 
	C263.253693,315.092010 265.336395,315.087219 267.418915,315.103088 
	C267.553711,315.104095 267.812866,315.310944 267.801117,315.342346 
	C267.725403,315.544739 267.590393,315.724976 267.117554,315.948669 
z"/>
<path fill="#CBC8C2" opacity="1.000000" stroke="none" 
	d="
M243.149246,52.001823 
	C244.636536,52.001717 245.745010,52.001717 246.853470,52.001717 
	C244.645996,53.266651 242.409454,53.014389 239.951553,52.809135 
	C240.875214,51.633934 241.894974,52.152969 243.149246,52.001823 
z"/>
<path fill="#CBC8C2" opacity="1.000000" stroke="none" 
	d="
M174.333862,231.374451 
	C175.402908,233.327057 174.974869,235.538895 174.105347,237.803909 
	C174.105347,235.740067 174.105347,233.676208 174.333862,231.374451 
z"/>
<path fill="#CBC8C2" opacity="1.000000" stroke="none" 
	d="
M263.061890,260.949463 
	C260.854126,260.984985 258.997406,260.984985 257.140686,260.984985 
	C257.147675,260.686432 257.154663,260.387909 257.161621,260.089355 
	C259.222809,260.089355 261.283997,260.084686 263.345062,260.100250 
	C263.478027,260.101257 263.733643,260.298615 263.721405,260.336426 
	C263.655273,260.540802 263.522644,260.723663 263.061890,260.949463 
z"/>
<path fill="#CBC8C2" opacity="1.000000" stroke="none" 
	d="
M172.998108,242.104187 
	C172.998184,243.581375 172.998184,244.680801 172.998184,245.780212 
	C171.767365,243.558563 171.943832,241.318222 172.237961,238.858765 
	C173.316635,239.818405 172.874130,240.829819 172.998108,242.104187 
z"/>
<path fill="#CBC8C2" opacity="1.000000" stroke="none" 
	d="
M269.571167,258.002655 
	C270.556274,258.068481 271.173981,258.133514 271.791718,258.198547 
	C271.786682,258.364624 271.781647,258.530701 271.776611,258.696777 
	C269.533020,258.696777 267.289429,258.696777 264.720245,258.696777 
	C266.330383,257.579926 267.815643,258.179169 269.571167,258.002655 
z"/>
<path fill="#CBC8C2" opacity="1.000000" stroke="none" 
	d="
M238.586624,259.740265 
	C236.244354,259.923645 234.177811,259.923645 232.111267,259.923645 
	C234.364975,258.975311 236.612823,258.497833 238.586624,259.740265 
z"/>
<path fill="#CBC8C2" opacity="1.000000" stroke="none" 
	d="
M265.152557,202.998108 
	C263.985382,202.998032 263.194244,202.998032 262.403107,202.998032 
	C262.389526,202.790604 262.375946,202.583160 262.362366,202.375732 
	C264.486420,202.375732 266.610504,202.375732 268.727234,202.375732 
	C267.887054,203.550034 266.605103,202.784531 265.152557,202.998108 
z"/>
<path fill="#CBC8C2" opacity="1.000000" stroke="none" 
	d="
M254.394318,364.002747 
	C256.179993,364.177887 257.684692,363.581879 259.335358,364.703796 
	C256.717499,364.703796 254.437729,364.703796 252.157944,364.703796 
	C252.153122,364.537750 252.148300,364.371735 252.143478,364.205688 
	C252.768478,364.138336 253.393478,364.071014 254.394318,364.002747 
z"/>
<path fill="#CBC8C2" opacity="1.000000" stroke="none" 
	d="
M272.367493,200.997253 
	C271.364929,200.933990 270.736603,200.871521 268.820587,200.681030 
	C272.364716,199.746948 274.628082,199.957031 277.271179,200.245880 
	C275.618164,201.447937 274.125519,200.804321 272.367493,200.997253 
z"/>
<path fill="#CBC8C2" opacity="1.000000" stroke="none" 
	d="
M371.965363,370.348999 
	C371.802124,371.120605 371.911072,372.347198 371.142029,371.619690 
	C369.531097,370.095795 370.773102,368.477051 371.793427,365.941193 
	C371.882507,367.978790 371.927399,369.005859 371.965363,370.348999 
z"/>
<path fill="#CBC8C2" opacity="1.000000" stroke="none" 
	d="
M318.765381,413.985596 
	C318.423676,412.944061 318.124542,412.078552 319.102539,411.670746 
	C320.142883,411.236877 320.866028,412.249817 320.432312,412.823425 
	C319.715302,413.771759 321.666229,415.729675 319.308197,415.756104 
	C318.422607,415.766022 318.700012,414.866028 318.765381,413.985596 
z"/>
<path fill="#CBC8C2" opacity="1.000000" stroke="none" 
	d="
M254.621964,144.009735 
	C256.599030,144.003647 258.206207,144.003647 259.813385,144.003647 
	C259.815979,144.317337 259.818604,144.631012 259.821198,144.944702 
	C257.847778,144.944702 255.874329,144.947189 253.900940,144.939896 
	C253.745743,144.939331 253.501770,144.920197 253.449326,144.826019 
	C252.807770,143.673798 254.004227,144.312622 254.621964,144.009735 
z"/>
<path fill="#CBC8C2" opacity="1.000000" stroke="none" 
	d="
M251.670975,146.737778 
	C249.316193,146.919785 247.245911,146.919785 245.175644,146.919785 
	C247.438919,145.979462 249.696213,145.503998 251.670975,146.737778 
z"/>
<path fill="#CBC8C2" opacity="1.000000" stroke="none" 
	d="
M261.641724,401.009644 
	C263.603180,401.003601 265.197357,401.003601 266.791504,401.003601 
	C266.799347,401.317810 266.807159,401.632050 266.815002,401.946259 
	C264.855377,401.946259 262.895782,401.948639 260.936188,401.941620 
	C260.781342,401.941071 260.539093,401.925476 260.485382,401.831909 
	C259.829224,400.689484 261.020172,401.303131 261.641724,401.009644 
z"/>
<path fill="#CBC8C2" opacity="1.000000" stroke="none" 
	d="
M252.361176,403.261078 
	C254.728180,403.078613 256.813324,403.078613 258.898438,403.078613 
	C256.614960,404.025116 254.348022,404.498322 252.361176,403.261078 
z"/>
<path fill="#CBC8C2" opacity="1.000000" stroke="none" 
	d="
M192.894409,93.062149 
	C194.949142,93.020004 196.679657,93.020004 199.499313,93.020004 
	C196.485138,94.373199 194.431992,94.047211 192.384186,93.733269 
	C192.312057,93.722214 192.192444,93.498390 192.221954,93.447739 
	C192.301163,93.311775 192.449371,93.216019 192.894409,93.062149 
z"/>
<path fill="#CBC8C2" opacity="1.000000" stroke="none" 
	d="
M223.605988,402.002625 
	C224.593018,402.066376 225.211166,402.129303 227.138489,402.325470 
	C223.599609,403.243439 221.365738,403.052185 218.760880,402.744904 
	C220.391220,401.558350 221.867783,402.192169 223.605988,402.002625 
z"/>
<path fill="#CBC8C2" opacity="1.000000" stroke="none" 
	d="
M177.093246,10.303753 
	C178.485611,10.097646 179.607529,10.043656 180.729446,9.989667 
	C180.788803,10.285263 180.848160,10.580859 180.907516,10.876455 
	C179.560043,11.023439 178.213043,11.175360 176.863510,11.299830 
	C176.808044,11.304947 176.677795,11.053747 176.674133,10.919462 
	C176.669952,10.766399 176.768753,10.610524 177.093246,10.303753 
z"/>
<path fill="#CBC8C2" opacity="1.000000" stroke="none" 
	d="
M226.971313,416.904175 
	C226.919724,418.045105 226.881638,418.828918 226.843536,419.612732 
	C225.889954,417.764130 225.870789,415.897614 226.276733,413.873718 
	C227.357697,414.690125 226.848816,415.689758 226.971313,416.904175 
z"/>
<path fill="#CBC8C2" opacity="1.000000" stroke="none" 
	d="
M172.009415,274.611511 
	C172.032410,274.100189 172.003723,273.912079 172.077026,273.781006 
	C172.202286,273.557129 172.391464,273.368988 172.553772,273.165833 
	C173.416824,275.037354 172.929443,276.930969 172.823654,279.202209 
	C171.486801,277.691681 172.235992,276.244324 172.009415,274.611511 
z"/>
<path fill="#D8D5CF" opacity="1.000000" stroke="none" 
	d="
M305.401794,275.154785 
	C304.697266,277.366089 303.822510,276.221344 303.005585,275.436523 
	C302.472961,274.924866 302.267883,274.197296 302.982239,273.780334 
	C304.173767,273.084778 304.636993,274.274719 305.401794,275.154785 
z"/>
<path fill="#CBC8C2" opacity="1.000000" stroke="none" 
	d="
M174.953796,285.066437 
	C172.890686,283.761200 174.380432,281.830780 174.051910,279.209473 
	C175.434052,281.502960 174.818588,283.160645 174.953796,285.066437 
z"/>
<path fill="#CBC8C2" opacity="1.000000" stroke="none" 
	d="
M227.954193,399.061462 
	C225.826385,397.748779 227.423706,395.798645 227.014435,393.097137 
	C228.430908,395.475311 227.820587,397.143158 227.954193,399.061462 
z"/>
<path fill="#CBC8C2" opacity="1.000000" stroke="none" 
	d="
M173.009415,306.611511 
	C173.032410,306.100189 173.003708,305.912079 173.077011,305.781006 
	C173.202225,305.557098 173.391434,305.368988 173.553772,305.165833 
	C174.416824,307.037354 173.929443,308.930969 173.823654,311.202209 
	C172.486801,309.691681 173.235992,308.244324 173.009415,306.611511 
z"/>
<path fill="#CBC8C2" opacity="1.000000" stroke="none" 
	d="
M274.068909,313.046509 
	C272.530396,314.049072 272.530396,314.049072 268.970703,313.514160 
	C270.530182,312.562836 272.176849,313.183258 274.068909,313.046509 
z"/>
<path fill="#CBC8C2" opacity="1.000000" stroke="none" 
	d="
M229.003143,390.735718 
	C229.063202,389.278137 229.124329,388.180328 229.185455,387.082489 
	C229.363708,387.089081 229.541962,387.095673 229.720215,387.102234 
	C229.720215,389.044250 229.720215,390.986267 229.720215,392.928284 
	C229.559525,392.935974 229.398849,392.943665 229.238159,392.951355 
	C229.160172,392.332733 229.082184,391.714081 229.003143,390.735718 
z"/>
<path fill="#CBC8C2" opacity="1.000000" stroke="none" 
	d="
M238.592377,314.010620 
	C240.216843,314.003998 241.488251,314.003998 242.759674,314.003998 
	C242.772842,314.320892 242.786011,314.637756 242.799179,314.954651 
	C241.200897,314.954651 239.602600,314.956696 238.004333,314.951477 
	C237.844589,314.950989 237.600098,314.964355 237.538315,314.873657 
	C236.832169,313.836792 237.899094,314.221252 238.592377,314.010620 
z"/>
<path fill="#D8D5CF" opacity="1.000000" stroke="none" 
	d="
M340.236023,315.758911 
	C339.194977,313.962952 340.295258,313.948273 341.241516,314.240662 
	C342.579132,314.653992 342.970123,315.720612 341.980713,316.767670 
	C340.991608,317.814392 340.916565,316.309265 340.236023,315.758911 
z"/>
<path fill="#CBC8C2" opacity="1.000000" stroke="none" 
	d="
M243.271545,93.997063 
	C242.282593,93.920753 241.654678,93.845413 241.026764,93.770073 
	C241.033737,93.609489 241.040695,93.448906 241.047653,93.288322 
	C243.010071,93.288322 244.972504,93.288322 246.934921,93.288322 
	C246.942581,93.462509 246.950256,93.636688 246.957916,93.810875 
	C245.849472,93.873260 244.741028,93.935646 243.271545,93.997063 
z"/>
<path fill="#CBC8C2" opacity="1.000000" stroke="none" 
	d="
M227.699203,203.335663 
	C226.049957,204.371506 224.140930,204.009872 222.170273,203.111664 
	C223.934494,203.111664 225.698700,203.111664 227.699203,203.335663 
z"/>
<path fill="#CBC8C2" opacity="1.000000" stroke="none" 
	d="
M234.360931,95.264404 
	C236.371658,95.082542 238.114517,95.082542 239.857391,95.082542 
	C237.933838,96.074524 236.015228,96.395927 234.360931,95.264404 
z"/>
<path fill="#CBC8C2" opacity="1.000000" stroke="none" 
	d="
M173.996887,208.289139 
	C173.938538,209.746490 173.879150,210.844849 173.819763,211.943222 
	C172.834030,209.982010 172.805374,208.041763 173.615585,204.961761 
	C173.837723,206.695816 173.916779,207.312973 173.996887,208.289139 
z"/>
<path fill="#D8D5CF" opacity="1.000000" stroke="none" 
	d="
M285.996460,228.840302 
	C285.902588,229.779861 285.809814,230.382919 285.610382,231.679153 
	C284.734619,229.354904 284.978729,227.772720 285.882233,226.181442 
	C285.920685,226.955551 285.959106,227.729675 285.996460,228.840302 
z"/>
<path fill="#CBC8C2" opacity="1.000000" stroke="none" 
	d="
M124.967133,55.548141 
	C125.087357,54.095860 124.608124,52.895443 125.531456,51.855465 
	C126.426781,53.420509 126.003670,55.036762 125.882172,56.623158 
	C125.872124,56.754341 125.680237,56.871601 125.572830,56.995331 
	C125.373955,56.630241 125.175079,56.265152 124.967133,55.548141 
z"/>
<path fill="#CBC8C2" opacity="1.000000" stroke="none" 
	d="
M354.721832,330.760895 
	C355.692474,332.223480 355.685730,333.397736 354.453064,334.434601 
	C353.232361,333.110229 353.144958,331.833405 354.721832,330.760895 
z"/>
<path fill="#D8D5CF" opacity="1.000000" stroke="none" 
	d="
M286.662689,209.700241 
	C285.662109,208.355408 285.952972,206.766129 286.883392,205.133865 
	C286.883392,206.582779 286.883392,208.031677 286.662689,209.700241 
z"/>
<path fill="#CBC8C2" opacity="1.000000" stroke="none" 
	d="
M226.337616,73.295609 
	C227.301651,74.743698 227.155151,76.407120 226.555084,78.266251 
	C225.625397,76.616158 226.080887,75.049332 226.337616,73.295609 
z"/>
<path fill="#D8D5CF" opacity="1.000000" stroke="none" 
	d="
M286.944397,305.883972 
	C286.846710,307.468262 287.382660,308.815735 286.487885,310.057098 
	C285.630066,308.645752 286.093628,307.175812 286.087036,305.754852 
	C286.086395,305.614868 286.228729,305.350037 286.281494,305.355804 
	C286.494781,305.379028 286.698975,305.485596 286.944397,305.883972 
z"/>
<path fill="#D8D5CF" opacity="1.000000" stroke="none" 
	d="
M173.322006,142.075958 
	C173.074585,143.833038 172.227203,143.613876 171.351700,142.818375 
	C170.930237,142.435394 170.128845,141.848587 170.977417,141.282532 
	C171.724182,140.784363 172.548630,141.207092 173.322006,142.075958 
z"/>
<path fill="#CBC8C2" opacity="1.000000" stroke="none" 
	d="
M228.987610,140.492905 
	C228.995193,141.792542 228.995193,142.754684 228.995193,143.716827 
	C228.696564,143.740784 228.397949,143.764725 228.099319,143.788681 
	C228.099319,142.378174 228.091797,140.967575 228.111694,139.557343 
	C228.113556,139.425644 228.288818,139.296356 228.383575,139.165955 
	C228.582382,139.495773 228.781204,139.825592 228.987610,140.492905 
z"/>
<path fill="#D8D5CF" opacity="1.000000" stroke="none" 
	d="
M285.337646,285.242584 
	C286.332520,286.568420 286.047363,288.145782 285.118774,289.770050 
	C285.118774,288.335724 285.118774,286.901428 285.337646,285.242584 
z"/>
<path fill="#CBC8C2" opacity="1.000000" stroke="none" 
	d="
M250.817963,428.996765 
	C249.669983,428.959045 248.867386,428.920319 248.064789,428.881592 
	C249.688049,427.840454 251.312881,427.803497 253.697876,428.592926 
	C252.382614,428.801941 251.772980,428.898834 250.817963,428.996765 
z"/>
<path fill="#D8D5CF" opacity="1.000000" stroke="none" 
	d="
M287.951050,236.103561 
	C286.191925,235.101730 287.179932,233.529236 287.338867,231.729507 
	C288.377899,233.184021 287.848053,234.528046 287.951050,236.103561 
z"/>
<path fill="#CBC8C2" opacity="1.000000" stroke="none" 
	d="
M202.478333,430.012939 
	C203.765625,430.005005 204.717575,430.005005 205.669525,430.005005 
	C205.692993,430.305603 205.716461,430.606232 205.739944,430.906830 
	C204.339264,430.906830 202.938461,430.914337 201.538071,430.894226 
	C201.409058,430.892395 201.282593,430.714233 201.154953,430.617920 
	C201.484299,430.418884 201.813644,430.219849 202.478333,430.012939 
z"/>
<path fill="#CBC8C2" opacity="1.000000" stroke="none" 
	d="
M248.860596,50.948288 
	C250.239731,50.077866 250.239731,50.077866 252.955124,50.506268 
	C251.758636,51.384426 250.424026,50.845387 248.860596,50.948288 
z"/>
<path fill="#D8D5CF" opacity="1.000000" stroke="none" 
	d="
M108.671844,159.978516 
	C108.422424,159.161179 108.153397,158.440430 108.388680,157.974121 
	C108.668648,157.419205 109.314430,157.850174 109.464081,158.257156 
	C109.728851,158.977249 110.720627,160.063614 108.671844,159.978516 
z"/>
<path fill="#CBC8C2" opacity="1.000000" stroke="none" 
	d="
M227.943512,57.212738 
	C225.972229,56.659336 227.348007,55.269146 227.216324,53.906746 
	C228.475571,54.832748 227.792175,55.967800 227.943512,57.212738 
z"/>
<path fill="#CBC8C2" opacity="1.000000" stroke="none" 
	d="
M228.063477,369.211243 
	C228.022217,367.954010 228.022217,367.001312 228.022217,365.300995 
	C229.322906,367.199951 229.046127,368.442932 228.742386,369.680389 
	C228.718872,369.776093 228.477112,369.918121 228.427353,369.888184 
	C228.293579,369.807648 228.208893,369.645508 228.063477,369.211243 
z"/>
<path fill="#D8D5CF" opacity="1.000000" stroke="none" 
	d="
M287.341675,280.240540 
	C288.445190,281.260620 287.762909,282.529510 288.174805,285.009460 
	C286.707123,282.793762 287.046783,281.597168 287.341675,280.240540 
z"/>
<path fill="#CBC8C2" opacity="1.000000" stroke="none" 
	d="
M228.015091,81.632187 
	C228.049240,80.561661 228.092056,79.809570 228.169708,78.445290 
	C229.269058,80.299141 229.177429,81.571976 228.616119,82.862549 
	C228.606522,82.884636 228.356415,82.861259 228.332733,82.808167 
	C228.209351,82.531410 228.123001,82.238144 228.015091,81.632187 
z"/>
<path fill="#CBC8C2" opacity="1.000000" stroke="none" 
	d="
M234.648865,316.013428 
	C234.222229,317.669495 233.134750,316.982544 231.262161,316.193451 
	C232.808517,316.098694 233.568329,316.052124 234.648865,316.013428 
z"/>
<path fill="#D8D5CF" opacity="1.000000" stroke="none" 
	d="
M405.682983,320.490051 
	C405.871368,321.350861 406.057159,322.231079 405.199738,322.162140 
	C404.266418,322.087158 403.952484,321.138275 404.193054,320.311035 
	C404.474579,319.343140 405.063660,319.758331 405.682983,320.490051 
z"/>
<path fill="#CBC8C2" opacity="1.000000" stroke="none" 
	d="
M302.477112,401.179688 
	C301.504578,401.081207 300.453583,401.355133 299.935852,400.294586 
	C301.002441,400.043579 302.066528,399.532471 302.477112,401.179688 
z"/>
<path fill="#CBC8C2" opacity="1.000000" stroke="none" 
	d="
M158.718536,91.936760 
	C158.955261,89.735802 160.294540,92.012856 161.044632,91.083817 
	C160.582825,92.255806 159.732162,91.892014 158.718536,91.936760 
z"/>
<path fill="#CBC8C2" opacity="1.000000" stroke="none" 
	d="
M161.702835,361.070068 
	C162.717392,361.112518 163.442230,361.198608 164.548141,361.329987 
	C163.201263,362.216980 162.243607,362.041992 161.289154,361.765594 
	C161.181137,361.734314 161.024139,361.502045 161.053116,361.442688 
	C161.119461,361.306824 161.286789,361.220276 161.702835,361.070068 
z"/>
<path fill="#CBC8C2" opacity="1.000000" stroke="none" 
	d="
M236.791351,21.978506 
	C236.041504,21.884590 235.585144,21.782190 235.128784,21.679790 
	C235.887436,20.581404 236.868271,20.985435 237.825180,21.296291 
	C237.891541,21.317852 237.949066,21.591539 237.936600,21.597687 
	C237.658966,21.734562 237.370911,21.850292 236.791351,21.978506 
z"/>
<path fill="#CBC8C2" opacity="1.000000" stroke="none" 
	d="
M203.239426,93.980362 
	C202.548111,93.789757 201.291626,93.769341 202.622498,93.157806 
	C203.222488,92.882126 204.395599,92.440514 204.909866,93.668594 
	C204.451248,93.774956 203.992630,93.881332 203.239426,93.980362 
z"/>
<path fill="#CBC8C2" opacity="1.000000" stroke="none" 
	d="
M122.284409,208.870209 
	C122.111557,207.764481 122.111557,206.879639 122.111557,204.989441 
	C123.122711,207.071594 123.300049,208.098801 122.284409,208.870209 
z"/>
<path fill="#D8D5CF" opacity="1.000000" stroke="none" 
	d="
M286.073486,263.334167 
	C286.130096,262.364349 285.698883,261.522003 286.598206,261.059509 
	C286.708038,261.810822 286.828491,262.560883 286.917877,263.314606 
	C286.933807,263.448761 286.828064,263.715393 286.766083,263.719238 
	C286.553162,263.732422 286.334686,263.656006 286.073486,263.334167 
z"/>
<path fill="#D8D5CF" opacity="1.000000" stroke="none" 
	d="
M285.715271,253.946472 
	C285.559174,253.330307 285.597900,252.904633 285.636597,252.478973 
	C286.008514,252.654755 286.602295,252.747192 286.706116,253.023666 
	C286.922516,253.599808 287.021851,254.379120 285.715271,253.946472 
z"/>
<path fill="#CBC8C2" opacity="1.000000" stroke="none" 
	d="
M118.717331,243.064774 
	C118.894928,244.232178 119.351822,245.242035 118.409195,246.079681 
	C117.873482,244.939758 117.700539,243.869049 118.717331,243.064774 
z"/>
<path fill="#CBC8C2" opacity="1.000000" stroke="none" 
	d="
M121.021515,224.846741 
	C121.115707,224.088226 121.218819,223.626770 121.321930,223.165329 
	C122.427834,223.943512 122.013428,224.937820 121.696922,225.908478 
	C121.676285,225.971741 121.404961,226.024246 121.398476,226.010712 
	C121.262917,225.727905 121.148781,225.434845 121.021515,224.846741 
z"/>
<path fill="#CBC8C2" opacity="1.000000" stroke="none" 
	d="
M164.032959,363.658295 
	C164.897903,362.803497 165.957199,362.782074 167.058899,363.479034 
	C166.169785,364.296112 165.184540,363.933929 164.032959,363.658295 
z"/>
<path fill="#CBC8C2" opacity="1.000000" stroke="none" 
	d="
M331.128723,396.292725 
	C331.937103,396.207489 332.546692,396.300323 333.153229,396.410065 
	C333.157410,396.410797 333.164001,396.714752 333.094330,396.759186 
	C332.300385,397.265533 331.566254,397.206848 331.128723,396.292725 
z"/>
<path fill="#D8D5CF" opacity="1.000000" stroke="none" 
	d="
M227.327148,199.801987 
	C228.259781,199.748215 228.718445,200.118271 228.297684,200.926514 
	C228.187088,201.138931 227.758987,201.186081 227.476685,201.309128 
	C227.373062,200.867340 227.269424,200.425568 227.327148,199.801987 
z"/>
<path fill="#CBC8C2" opacity="1.000000" stroke="none" 
	d="
M294.151001,426.708679 
	C293.570679,426.749390 293.158508,426.614166 292.746338,426.479004 
	C292.856354,426.360718 292.992462,426.125824 293.072021,426.143616 
	C293.495514,426.238403 293.904877,426.396545 294.151001,426.708679 
z"/>
<path fill="#CBC8C2" opacity="1.000000" stroke="none" 
	d="
M337.232117,279.836487 
	C337.172485,279.306915 336.595459,278.127716 337.578094,278.077637 
	C338.110352,278.050507 337.844452,279.133667 337.232117,279.836487 
z"/>
<path fill="#D8D5CF" opacity="1.000000" stroke="none" 
	d="
M199.068329,173.132080 
	C199.173508,173.099075 199.281479,173.277466 199.389435,173.455872 
	C199.283325,173.418411 199.177231,173.380936 199.068329,173.132080 
z"/>
<path fill="#D8D5CF" opacity="1.000000" stroke="none" 
	d="
M198.958603,173.031357 
	C198.808929,172.881927 198.697083,172.697784 198.585220,172.513641 
	C198.694412,172.553848 198.803589,172.594055 198.989166,172.777466 
	C199.065552,172.920670 198.996429,172.996628 198.958603,173.031357 
z"/>
<path fill="#D8D5CF" opacity="1.000000" stroke="none" 
	d="
M243.065704,217.146866 
	C243.180649,217.111664 243.298676,217.300751 243.416702,217.489838 
	C243.300735,217.450272 243.184753,217.410721 243.065704,217.146866 
z"/>
<path fill="#CBC8C2" opacity="1.000000" stroke="none" 
	d="
M227.470810,229.529205 
	C227.439041,229.476654 227.502579,229.581757 227.470810,229.529205 
z"/>
<path fill="#D8D5CF" opacity="1.000000" stroke="none" 
	d="
M102.056458,152.138351 
	C102.142876,152.125595 102.259743,152.284042 102.376602,152.442505 
	C102.280037,152.398193 102.183472,152.353882 102.056458,152.138351 
z"/>
<path fill="#D8D5CF" opacity="1.000000" stroke="none" 
	d="
M101.983032,152.012726 
	C101.852448,151.871048 101.737816,151.715820 101.623192,151.560577 
	C101.716774,151.604752 101.810356,151.648926 101.964973,151.830109 
	C102.026009,151.967133 101.999001,151.999161 101.983032,152.012726 
z"/>
<path fill="#D8D5CF" opacity="1.000000" stroke="none" 
	d="
M325.056335,298.138184 
	C325.141846,298.126099 325.259155,298.283142 325.376465,298.440155 
	C325.280334,298.395874 325.184235,298.351593 325.056335,298.138184 
z"/>
<path fill="#D8D5CF" opacity="1.000000" stroke="none" 
	d="
M324.984161,298.011993 
	C324.854523,297.870239 324.739929,297.715790 324.625366,297.561340 
	C324.718262,297.605896 324.811127,297.650482 324.964294,297.832062 
	C325.024536,297.969086 324.999237,297.999298 324.984161,298.011993 
z"/>
<path fill="#CBC8C2" opacity="1.000000" stroke="none" 
	d="
M337.014801,280.018158 
	C336.890625,279.964874 336.944122,280.970032 336.818420,280.037659 
	C336.972473,279.977814 337.002014,280.003265 337.014801,280.018158 
z"/>
<path fill="#D8D5CF" opacity="1.000000" stroke="none" 
	d="
M242.959351,217.029877 
	C242.819733,216.892120 242.716858,216.720932 242.613983,216.549728 
	C242.712433,216.588470 242.810867,216.627213 242.985977,216.794266 
	C243.062637,216.922577 242.996124,216.996445 242.959351,217.029877 
z"/>
</svg>