<svg fill="white" xmlns="http://www.w3.org/2000/svg"  viewBox="0 0 50 50" width="100px" height="100px"><path fill="none" stroke="white" stroke-linecap="round" stroke-linejoin="round" stroke-miterlimit="10" stroke-width="2.018" d="M25,3C12.808,3,3,12.808,3,25s9.808,22,22,22s22-9.808,22-22S37.192,3,25,3z"/><path fill="none" stroke="white" stroke-miterlimit="10" stroke-width="2" d="M38.998 23c-.344 0-.692-.089-1.011-.275-5.226-3.068-11.58-3.719-15.99-3.725-.021 0-.042 0-.063 0-5.333 0-9.44.938-9.481.948-1.078.247-2.151-.419-2.401-1.495-.25-1.075.417-2.149 1.492-2.4C11.729 16.01 16.117 15 21.934 15c.023 0 .046 0 .069 0 4.905.007 12.011.753 18.01 4.275.953.56 1.271 1.785.712 2.737C40.352 22.647 39.684 23 38.998 23zM36.281 30.001c-.31 0-.624-.083-.906-.26-4.484-2.794-9.092-3.385-13.062-3.35-4.482.04-8.066.895-8.127.913-.907.258-1.861-.272-2.12-1.183-.259-.913.272-1.862 1.184-2.12.277-.079 3.854-.959 8.751-1 4.465-.037 10.029.61 15.191 3.826.805.501 1.051 1.561.549 2.366C37.415 29.715 36.854 30.001 36.281 30.001zM33.499 36.001c-.286 0-.575-.081-.831-.252C30.194 34.1 27 33 22.5 33.001c-3.714.001-6.498.914-6.526.923-.784.266-1.635-.162-1.897-.948s.163-1.636.949-1.897c.132-.044 3.279-1.076 7.474-1.077C27 30 30.868 30.944 34.332 33.253c.689.46.875 1.391.416 2.08C34.459 35.767 33.984 36.001 33.499 36.001z"/></svg>
